<svg xmlns="http://www.w3.org/2000/svg" width="31.01" height="31.01" viewBox="0 0 31.01 31.01"><path d="M25.1 21.51a.5.5 0 0 1-.33-.14L19 15.97a.5.5 0 1 1 .69-.72l5.75 5.4a.5.5 0 0 1-.34.86zM5.9 21.51a.5.5 0 0 1-.34-.86l5.76-5.4a.5.5 0 0 1 .68.73l-5.76 5.4a.5.5 0 0 1-.34.13z"/><path d="M28.51 26.53H2.5a2.5 2.5 0 0 1-2.5-2.5V6.98a2.5 2.5 0 0 1 2.5-2.5h26.01a2.5 2.5 0 0 1 2.5 2.5v17.05a2.5 2.5 0 0 1-2.5 2.5zM2.5 5.48c-.83 0-1.5.67-1.5 1.5v17.05c0 .83.67 1.5 1.5 1.5h26.01c.83 0 1.5-.67 1.5-1.5V6.98c0-.83-.67-1.5-1.5-1.5H2.5z"/><path d="M15.5 18.02a2.8 2.8 0 0 1-1.83-.66L.83 6.16a.5.5 0 0 1-.05-.71.5.5 0 0 1 .7-.05l12.85 11.2c.64.56 1.72.56 2.35 0L29.51 5.42a.5.5 0 0 1 .66.75L17.34 17.36a2.8 2.8 0 0 1-1.83.66z"/></svg>
