<svg xmlns="http://www.w3.org/2000/svg" viewBox="0 0 197 197"><path fill="#fdcc9b" d="M84 146h29v33H84z"/><path d="M84 150s12 8 29 6v-10H84v4z" fill="#fcbc85"/><ellipse cx="41" cy="95" rx="14" ry="16" fill="#fcbc85"/><ellipse cx="155" cy="95" rx="14" ry="16" fill="#fcbc85"/><path d="M155 64c0-24-17-42-57-42-39 0-57 18-57 42s-4 88 57 88 57-64 57-88z" fill="#fdcc9b"/><ellipse cx="71" cy="91" rx="6" ry="7" fill="#3b2519"/><circle cx="68" cy="88" r="2" fill="#fff"/><path d="M61 75c3 1 7-5 18 0 2 1 3-8-8-8-10 0-12 7-10 8z" fill="#86461b"/><ellipse cx="127" cy="91" rx="6" ry="7" fill="#3b2519"/><circle cx="124" cy="88" r="2" fill="#fff"/><path d="M136 75c-3 1-8-5-18 0-2 1-3-8 8-8 10 0 12 7 10 8z" fill="#86461b"/><path d="M98 115c-6 0-9-4-9-2s1 6 9 6 10-4 10-6-4 2-10 2zM98 135h-3s1 2 3 2c3 0 4-2 4-2h-4z" fill="#fcbc85"/><path d="M98 130c-9 0-15-4-15-3s3 5 15 5c13 0 16-4 16-5s-6 3-16 3z" fill="#f7945e"/><path d="M98 160v37H27c0-15 38-37 71-37zM98 160v37h72c0-15-38-37-72-37z" fill="#d58e64"/><path d="M98 160l-21 2s8 11 21 11 22-9 23-10c-8-2-15-3-23-3z" fill="#bf805a"/><path d="M84 161s4 5 14 5c11 0 15-5 15-5s-15-6-29 0z" fill="#fdcc9b"/><path d="M98 139v14c-30 0-41-17-44-21-2-4 15 12 30 12 6 0 6-5 14-5zM98 139v14c31 0 41-17 44-21 2-4-14 12-29 12-6 0-6-5-15-5zM99 48V0C48 0 39 19 37 54c-3 35 3 48 6 47 4 0 2-40 7-49 8-16 24-4 49-4zM99 48V0c50 0 59 19 62 54 2 35-3 48-7 47-3 0-1-40-6-49-9-16-25-4-49-4z" fill="#86461b"/><path d="M67 165c-22 8-40 21-40 32h40v-32z" fill="#744a25"/><path d="M69 197v-34l-8 3-5 31h13z" fill="#573514"/><path d="M130 165c22 8 40 21 40 32h-40v-32z" fill="#744a25"/><path d="M128 197v-34l7 3 6 31h-13z" fill="#573514"/></svg>
